# xmcd CD database file
#
# Track frame offsets:
#	150
#	12631
#	24257
#	37941
#	53200
#	70598
#	86542
#	99644
#	111131
#	124511
#
# Disc length: 1923 seconds
#
# Revision: 0
# Processed by: cddbd v1.5PL3 Copyright (c) Steve Scherf et al.
# Submitted via: CDex 1.51
#
DISCID=7407810a
DTITLE=SCOTT McQUAIG - SCOTT McQUAIG
DYEAR=1900
DGENRE=Country
TTITLE0=Honky Tonk Amnesia
TTITLE1=A Law Against Leavin'
TTITLE2=Old Memory
TTITLE3=My Friends In Places
TTITLE4=Johnny And The Dreamers
TTITLE5=Take The Smile From Your Face
TTITLE6=I Wil Always Wait For You
TTITLE7=My Friend The Bottle
TTITLE8=Plans Of Leavin' Man
TTITLE9=The Little Senorita Wiht Green Eyes
EXTD=
EXTT0=
EXTT1=
EXTT2=
EXTT3=
EXTT4=
EXTT5=
EXTT6=
EXTT7=
EXTT8=
EXTT9=
PLAYORDER=
